<?xml version="1.0" standalone="no"?>
<!DOCTYPE svg PUBLIC "-//W3C//DTD SVG 20010904//EN"
 "http://www.w3.org/TR/2001/REC-SVG-20010904/DTD/svg10.dtd">
<svg version="1.0" xmlns="http://www.w3.org/2000/svg"
 width="180.000000pt" height="180.000000pt" viewBox="0 0 180.000000 180.000000"
 preserveAspectRatio="xMidYMid meet">
<metadata>
Created by potrace 1.16, written by Peter Selinger 2001-2019
</metadata>
<g transform="translate(0.000000,180.000000) scale(0.100000,-0.100000)"
fill="#000000" stroke="none">
<path d="M0 900 l0 -900 900 0 900 0 0 900 0 900 -900 0 -900 0 0 -900z m1039
744 c44 -25 81 -49 81 -53 -1 -3 -150 -92 -333 -197 l-332 -192 -3 -382 c-2
-340 -4 -381 -18 -376 -8 3 -46 24 -85 46 l-69 41 0 384 0 383 332 195 c183
107 336 195 339 196 4 1 43 -20 88 -45z m467 -271 l134 -78 0 -387 0 -388 -37
-23 c-21 -13 -172 -101 -335 -196 l-297 -172 -140 82 -141 81 0 167 0 167 395
229 395 230 0 65 0 65 -51 28 c-28 16 -58 27 -67 24 -9 -2 -165 -90 -345 -195
l-328 -191 3 92 3 92 330 192 c182 106 334 192 339 193 5 0 69 -35 142 -77z"/>
<path d="M1160 722 l-305 -178 0 -88 0 -88 55 -30 55 -30 255 149 255 149 3
147 c1 81 -1 147 -5 147 -5 0 -145 -81 -313 -178z"/>
</g>
</svg>
