<?xml version="1.0" standalone="no"?>
<!DOCTYPE svg PUBLIC "-//W3C//DTD SVG 20010904//EN"
 "http://www.w3.org/TR/2001/REC-SVG-20010904/DTD/svg10.dtd">
<svg version="1.0" xmlns="http://www.w3.org/2000/svg"
 width="512.000000pt" height="512.000000pt" viewBox="0 0 512.000000 512.000000"
 preserveAspectRatio="xMidYMid meet">
<metadata>
Created by potrace 1.16, written by Peter Selinger 2001-2019
</metadata>
<g transform="translate(0.000000,512.000000) scale(0.100000,-0.100000)"
fill="#000000" stroke="none">
<path d="M0 2560 l0 -2560 2560 0 2560 0 0 2560 0 2560 -2560 0 -2560 0 0
-2560z m2867 2169 c154 -90 154 -91 250 -146 46 -27 83 -51 83 -55 0 -4 -12
-14 -27 -22 -16 -8 -228 -131 -473 -273 -245 -143 -465 -271 -490 -285 -25
-14 -101 -59 -170 -99 -69 -40 -195 -113 -280 -162 -149 -86 -195 -113 -332
-193 -35 -21 -82 -48 -105 -61 l-43 -25 0 -1089 c0 -599 -2 -1089 -4 -1089 -3
0 -26 13 -53 29 -26 16 -104 62 -173 102 -69 40 -151 88 -183 106 l-57 34 0
1102 0 1102 133 76 c111 64 286 166 412 239 147 86 214 125 240 140 17 9 86
50 155 90 69 40 139 81 157 91 17 10 50 29 72 43 22 15 43 26 46 26 3 0 24 11
46 26 22 14 55 33 72 43 18 10 88 51 157 91 69 40 145 84 170 98 25 14 79 46
120 70 111 67 123 72 142 66 9 -3 70 -36 135 -75z m1110 -645 c106 -63 141
-84 188 -109 22 -12 76 -44 120 -70 44 -26 96 -57 115 -67 19 -11 86 -50 148
-86 l112 -65 0 -1111 0 -1111 -57 -33 c-85 -48 -137 -78 -243 -140 -52 -31
-104 -62 -115 -68 -11 -6 -76 -44 -145 -84 -69 -40 -145 -84 -169 -97 -24 -14
-104 -61 -178 -104 -75 -43 -137 -79 -139 -79 -2 0 -28 -16 -58 -35 -30 -19
-57 -35 -60 -35 -4 0 -180 -102 -336 -195 -30 -18 -71 -42 -90 -53 -19 -10
-94 -54 -167 -96 -73 -42 -136 -76 -141 -76 -4 0 -37 17 -73 38 -35 21 -172
101 -304 177 -132 76 -283 164 -335 195 l-95 57 -2 464 c-2 255 1 469 5 475 4
6 52 36 107 67 117 67 150 86 310 180 107 62 301 175 395 229 266 154 743 431
805 468 44 26 114 67 155 90 41 23 89 50 105 60 55 32 210 123 240 140 17 9
54 32 83 49 l52 33 0 178 0 178 -122 73 c-68 39 -133 78 -145 85 -45 28 -33
33 -373 -166 -153 -89 -354 -206 -396 -230 -18 -10 -141 -82 -275 -161 -134
-78 -262 -152 -284 -164 -22 -12 -91 -52 -153 -88 -62 -37 -132 -78 -155 -91
-112 -63 -294 -170 -312 -182 -44 -31 -45 -28 -45 234 0 136 4 252 8 258 4 5
39 28 77 49 39 21 93 54 122 72 29 18 54 33 57 33 2 0 40 21 83 46 43 26 93
55 112 66 18 10 128 74 245 142 116 68 243 141 281 163 60 35 255 148 350 203
17 10 84 49 150 87 166 96 364 212 400 234 44 26 57 24 142 -27z"/>
<path d="M4150 2543 c-25 -14 -85 -49 -135 -78 -182 -106 -271 -158 -305 -178
-19 -10 -91 -52 -160 -92 -69 -40 -141 -82 -160 -93 -89 -51 -286 -165 -388
-226 -62 -36 -132 -77 -155 -90 -23 -13 -98 -56 -167 -96 -69 -40 -152 -88
-185 -107 -33 -19 -66 -39 -73 -45 -9 -8 -12 -65 -10 -241 l3 -231 41 -28 c37
-25 91 -57 204 -120 19 -11 39 -24 45 -29 18 -17 41 -9 150 56 60 36 110 65
111 65 1 0 64 37 140 81 145 85 346 202 424 247 25 14 108 62 185 107 77 45
217 126 310 180 94 54 173 104 177 109 4 6 8 191 8 411 0 220 -4 405 -8 412
-5 8 -20 4 -52 -14z"/>
</g>
</svg>
