<?xml version="1.0" standalone="no"?>
<!DOCTYPE svg PUBLIC "-//W3C//DTD SVG 20010904//EN"
 "http://www.w3.org/TR/2001/REC-SVG-20010904/DTD/svg10.dtd">
<svg version="1.0" xmlns="http://www.w3.org/2000/svg"
 width="414.000000pt" height="400.000000pt" viewBox="0 0 414.000000 400.000000"
 preserveAspectRatio="xMidYMid meet">
<metadata>
Created by potrace 1.16, written by Peter Selinger 2001-2019
</metadata>
<g transform="translate(0.000000,400.000000) scale(0.100000,-0.100000)"
fill="#000000" stroke="none">
<path d="M0 2000 l0 -2000 2070 0 2070 0 0 2000 0 2000 -2070 0 -2070 0 0
-2000z m2238 1736 c8 -5 84 -51 170 -101 86 -49 155 -94 153 -100 -2 -5 -337
-204 -745 -440 l-741 -431 -5 -851 -5 -851 -183 106 -182 107 2 859 3 860 744
432 c458 266 750 430 760 427 9 -4 22 -11 29 -17z m974 -567 c57 -34 112 -65
123 -70 11 -5 99 -56 195 -113 l175 -104 2 -868 3 -869 -728 -422 c-400 -232
-734 -424 -742 -428 -9 -3 -141 67 -330 177 l-315 183 -2 360 c-2 198 1 365 5
371 4 5 402 239 885 519 l877 509 0 137 c0 117 -2 138 -17 151 -38 31 -217
129 -232 126 -9 -2 -160 -86 -334 -188 -175 -102 -332 -193 -350 -203 -30 -18
-549 -319 -622 -362 -19 -11 -57 -32 -84 -47 -27 -15 -65 -37 -83 -48 -18 -11
-36 -20 -40 -20 -5 0 -8 87 -8 193 0 210 -2 201 59 235 63 36 90 52 141 82 57
34 94 56 158 91 20 12 42 25 47 29 6 4 30 19 55 32 69 38 110 62 165 95 72 43
234 137 278 162 85 48 137 78 308 179 75 44 156 91 180 105 24 13 60 34 79 45
19 11 38 21 42 21 3 1 53 -26 110 -60z"/>
<path d="M2660 1610 c-377 -219 -691 -403 -698 -409 -9 -9 -12 -57 -10 -193
l3 -180 119 -69 c65 -38 124 -69 132 -69 15 0 1136 649 1146 664 4 6 8 151 8
321 0 171 -4 315 -8 321 -4 8 -242 -125 -692 -386z"/>
</g>
</svg>
